<svg width="48" height="48" viewBox="0 0 48 48" fill="none" xmlns="http://www.w3.org/2000/svg">
<g clip-path="url(#clip0_1_2)">
<path d="M14.6374 28.3602C17.0407 28.3602 18.989 26.4119 18.989 24.0085C18.989 21.6052 17.0407 19.6569 14.6374 19.6569C12.234 19.6569 10.2857 21.6052 10.2857 24.0085C10.2857 26.4119 12.234 28.3602 14.6374 28.3602ZM4.35165 37.0635C6.755 37.0635 8.7033 35.1152 8.7033 32.7118C8.7033 30.3085 6.755 28.3602 4.35165 28.3602C1.9483 28.3602 0 30.3085 0 32.7118C0 35.1152 1.9483 37.0635 4.35165 37.0635ZM43.6484 37.0635C46.0517 37.0635 48 35.1152 48 32.7118C48 30.3085 46.0517 28.3602 43.6484 28.3602C41.245 28.3602 39.2967 30.3085 39.2967 32.7118C39.2967 35.1152 41.245 37.0635 43.6484 37.0635Z" fill="black"/>
<path d="M29.356 24.1919C29.2169 22.738 29.146 21.5279 28.0323 20.6775C26.6217 19.6004 25.024 20.2993 23.0558 19.5889C21.1219 19.121 19.6875 17.404 19.6875 15.3574C19.6875 12.9509 21.6709 11 24.1174 11C25.9295 11 27.4874 12.0702 28.1737 13.603C29.2239 15.5979 28.5413 17.6281 29.8609 18.6508C31.4234 19.8617 33.5299 18.9749 35.8804 20.1222C36.6356 20.4693 37.2749 21.0197 37.7254 21.7019C38.1759 22.3841 38.4375 23.1981 38.4375 24.0722C38.4375 26.1188 37.0031 27.8358 35.0692 28.3037C33.101 29.014 31.5033 28.3152 30.0927 29.3923C28.5066 30.6034 29.3557 32.6297 28.063 34.7702C27.3293 36.1797 25.8379 37.1444 24.1174 37.1444C21.6709 37.1444 19.6875 35.1935 19.6875 32.787C19.6875 31.0388 20.7341 29.5311 22.2446 28.837C24.5951 27.6897 26.7016 28.5764 28.2641 27.3656C29.1655 26.667 29.356 25.5894 29.356 24.1919Z" fill="#D0021B"/>
</g>
<defs>
<clipPath id="clip0_1_2">
<rect width="48" height="26.25" fill="white" transform="translate(0 11)"/>
</clipPath>
</defs>
</svg>
